<svg width="17" height="16" viewBox="0 0 17 16" fill="none" xmlns="http://www.w3.org/2000/svg">
<rect x="1" y="0.5" width="15" height="15" rx="7.5" stroke="#757D85"/>
<path d="M9.96629 6.13418L7.64204 6.42547L7.55882 6.81116L8.01555 6.8954C8.31395 6.96644 8.37281 7.07403 8.30786 7.37141L7.55882 10.8913C7.36192 11.8017 7.66539 12.23 8.3789 12.23C8.93205 12.23 9.57452 11.9742 9.86581 11.6231L9.95513 11.2008C9.75214 11.3795 9.45577 11.4505 9.25887 11.4505C8.97976 11.4505 8.87826 11.2546 8.95032 10.9095L9.96629 6.13418ZM10.0373 4.01495C10.0373 4.28414 9.93041 4.5423 9.74007 4.73264C9.54972 4.92298 9.29157 5.02991 9.02238 5.02991C8.7532 5.02991 8.49504 4.92298 8.3047 4.73264C8.11436 4.5423 8.00743 4.28414 8.00743 4.01495C8.00743 3.74577 8.11436 3.48761 8.3047 3.29727C8.49504 3.10693 8.7532 3 9.02238 3C9.29157 3 9.54972 3.10693 9.74007 3.29727C9.93041 3.48761 10.0373 3.74577 10.0373 4.01495Z" fill="#757D85"/>
</svg>
