<svg width="25" height="24" viewBox="0 0 25 24" fill="none" xmlns="http://www.w3.org/2000/svg">
<path d="M8.1878 19.6161C8.77883 19.6161 9.07434 19.6161 9.34356 19.716C9.38095 19.7298 9.41781 19.7451 9.45406 19.7617C9.71506 19.8815 9.92402 20.0904 10.3419 20.5083C11.3039 21.4702 11.7848 21.9512 12.3766 21.9955C12.4561 22.0015 12.5361 22.0015 12.6156 21.9955C13.2074 21.9512 13.6884 21.4702 14.6502 20.5083C15.0682 20.0904 15.2771 19.8815 15.5381 19.7617C15.5744 19.7451 15.6112 19.7298 15.6486 19.716C15.9179 19.6161 16.2134 19.6161 16.8044 19.6161H16.9134C18.4213 19.6161 19.1753 19.6161 19.6437 19.1476C20.1122 18.6792 20.1122 17.9252 20.1122 16.4173V16.3083C20.1122 15.7173 20.1122 15.4218 20.2121 15.1525C20.2259 15.1151 20.2412 15.0783 20.2578 15.042C20.3776 14.781 20.5865 14.5721 21.0044 14.1541C21.9663 13.1923 22.4473 12.7113 22.4916 12.1195C22.4976 12.04 22.4976 11.96 22.4916 11.8805C22.4473 11.2887 21.9663 10.8078 21.0044 9.84585C20.5865 9.42793 20.3776 9.21897 20.2578 8.95797C20.2412 8.92172 20.2259 8.88486 20.2121 8.84747C20.1122 8.57825 20.1122 8.28274 20.1122 7.69171V7.58269C20.1122 6.07479 20.1122 5.32083 19.6437 4.85239C19.1753 4.38394 18.4213 4.38394 16.9134 4.38394H16.8044C16.2134 4.38394 15.9179 4.38394 15.6486 4.28405C15.6112 4.27018 15.5744 4.25491 15.5381 4.23828C15.2771 4.11855 15.0682 3.90959 14.6502 3.49167C13.6884 2.52977 13.2074 2.04882 12.6156 2.00447C12.5361 1.99851 12.4561 1.99851 12.3766 2.00447C11.7848 2.04882 11.3039 2.52977 10.3419 3.49167C9.92402 3.90959 9.71506 4.11855 9.45406 4.23828C9.41781 4.25491 9.38095 4.27018 9.34356 4.28405C9.07434 4.38394 8.77883 4.38394 8.1878 4.38394H8.07878C6.57088 4.38394 5.81692 4.38394 5.34848 4.85239C4.88003 5.32083 4.88003 6.07479 4.88003 7.58269V7.69171C4.88003 8.28274 4.88003 8.57825 4.78014 8.84747C4.76627 8.88486 4.751 8.92172 4.73437 8.95797C4.61464 9.21897 4.40568 9.42793 3.98776 9.84585C3.02586 10.8078 2.54491 11.2887 2.50056 11.8805C2.4946 11.96 2.4946 12.04 2.50056 12.1195C2.54491 12.7113 3.02586 13.1923 3.98776 14.1541C4.40568 14.5721 4.61464 14.781 4.73437 15.042C4.751 15.0783 4.76627 15.1151 4.78014 15.1525C4.88003 15.4218 4.88003 15.7173 4.88003 16.3083V16.4173C4.88003 17.9252 4.88003 18.6792 5.34848 19.1476C5.81692 19.6161 6.57088 19.6161 8.07878 19.6161H8.1878Z" fill="white"/>
<path d="M15.5 9L9.5 15" stroke="#A1045A" stroke-width="1.5" stroke-linecap="round" stroke-linejoin="round"/>
<path d="M15.5 15H15.4892M9.51076 9H9.5" stroke="#A1045A" stroke-width="2" stroke-linecap="round" stroke-linejoin="round"/>
</svg>
