<svg width="13" height="12" viewBox="0 0 13 12" fill="none" xmlns="http://www.w3.org/2000/svg">
<path d="M9.59375 10.5C9.16728 10.5 8.7504 10.3735 8.3958 10.1366C8.04121 9.89967 7.76484 9.56291 7.60164 9.1689C7.43843 8.7749 7.39573 8.34135 7.47893 7.92308C7.56213 7.50481 7.76749 7.1206 8.06905 6.81904C8.37061 6.51749 8.75482 6.31212 9.17309 6.22892C9.59136 6.14573 10.0249 6.18843 10.4189 6.35163C10.8129 6.51483 11.1497 6.7912 11.3866 7.14579C11.6235 7.50039 11.75 7.91728 11.75 8.34374C11.7494 8.91543 11.522 9.46352 11.1178 9.86776C10.7135 10.272 10.1654 10.4994 9.59375 10.5ZM9.59375 6.93749C9.31562 6.93749 9.04374 7.01997 8.81248 7.17449C8.58122 7.32901 8.40098 7.54864 8.29455 7.80559C8.18811 8.06255 8.16026 8.3453 8.21452 8.61809C8.26878 8.89087 8.40271 9.14144 8.59938 9.33811C8.79605 9.53478 9.04662 9.66871 9.3194 9.72297C9.59219 9.77723 9.87494 9.74938 10.1319 9.64295C10.3889 9.53651 10.6085 9.35627 10.763 9.12501C10.9175 8.89376 11 8.62187 11 8.34374C10.9996 7.97092 10.8513 7.61348 10.5876 7.34985C10.324 7.08622 9.96658 6.93793 9.59375 6.93749ZM3.40625 10.5C2.97978 10.5 2.5629 10.3735 2.2083 10.1366C1.85371 9.89967 1.57734 9.56291 1.41414 9.1689C1.25093 8.7749 1.20823 8.34135 1.29143 7.92308C1.37463 7.50481 1.57999 7.1206 1.88155 6.81904C2.18311 6.51749 2.56732 6.31212 2.98559 6.22892C3.40386 6.14573 3.83741 6.18843 4.23141 6.35163C4.62542 6.51483 4.96218 6.7912 5.19911 7.14579C5.43604 7.50039 5.5625 7.91728 5.5625 8.34374C5.56188 8.91543 5.33451 9.46352 4.93026 9.86776C4.52602 10.272 3.97793 10.4994 3.40625 10.5ZM3.40625 6.93749C3.12812 6.93749 2.85624 7.01997 2.62498 7.17449C2.39372 7.32901 2.21348 7.54864 2.10705 7.80559C2.00061 8.06255 1.97276 8.3453 2.02702 8.61809C2.08128 8.89087 2.21521 9.14144 2.41188 9.33811C2.60855 9.53478 2.85912 9.66871 3.13191 9.72297C3.40469 9.77723 3.68744 9.74938 3.9444 9.64295C4.20136 9.53651 4.42098 9.35627 4.57551 9.12501C4.73003 8.89376 4.8125 8.62187 4.8125 8.34374C4.81207 7.97092 4.66377 7.61348 4.40014 7.34985C4.13651 7.08622 3.77908 6.93793 3.40625 6.93749ZM8 2.99999C8.09879 3.00034 8.19666 2.98109 8.28796 2.94338C8.37926 2.90566 8.46218 2.85022 8.53193 2.78026C8.60167 2.7103 8.65685 2.6272 8.69428 2.53578C8.73171 2.44437 8.75065 2.34643 8.75 2.24765C8.75109 2.14936 8.73258 2.05184 8.69554 1.96079C8.6585 1.86974 8.60368 1.78699 8.53429 1.71737C8.46489 1.64776 8.38231 1.59268 8.29138 1.55535C8.20044 1.51803 8.10298 1.49921 8.00469 1.49999C7.9062 1.49969 7.80861 1.51878 7.7175 1.55619C7.62639 1.59359 7.54353 1.64858 7.47367 1.71801C7.40381 1.78743 7.34831 1.86994 7.31033 1.96082C7.27236 2.05169 7.25265 2.14916 7.25234 2.24765C7.25204 2.34614 7.27113 2.44373 7.30854 2.53484C7.34594 2.62595 7.40093 2.7088 7.47036 2.77867C7.53978 2.84853 7.62229 2.90403 7.71317 2.94201C7.80404 2.97998 7.90151 2.99969 8 2.99999Z" fill="white"/>
<path d="M9.11445 4.49999H8.08883C8.072 4.49999 8.05549 4.49547 8.04101 4.48689C8.02654 4.47831 8.01464 4.466 8.00656 4.45124L7.26266 3.08788C7.21024 2.98656 7.13471 2.89901 7.04217 2.83231C6.94963 2.76561 6.84268 2.72163 6.72999 2.70395C6.61729 2.68626 6.50202 2.69536 6.39349 2.7305C6.28497 2.76564 6.18625 2.82585 6.10531 2.90624L4.46797 4.55624C4.33041 4.69663 4.25233 4.8847 4.25 5.08124C4.25 5.48905 4.54531 5.63436 4.68359 5.71639C5.35156 6.10124 5.82195 6.38272 6.08 6.53905C6.09372 6.5474 6.10506 6.55914 6.11294 6.57313C6.12082 6.58712 6.12497 6.60291 6.125 6.61897V8.23897C6.125 8.44077 6.28016 8.61397 6.48195 8.62405C6.53262 8.62649 6.58325 8.61863 6.63079 8.60094C6.67833 8.58325 6.72178 8.55609 6.75852 8.52113C6.79527 8.48616 6.82453 8.4441 6.84455 8.39749C6.86457 8.35089 6.87493 8.30071 6.875 8.24999V6.23436C6.87503 6.17483 6.86089 6.11615 6.83375 6.06316C6.80661 6.01018 6.76724 5.96442 6.71891 5.92967L5.85172 5.306C5.84083 5.29821 5.83174 5.28818 5.82506 5.27659C5.81837 5.26499 5.81425 5.2521 5.81296 5.23878C5.81167 5.22546 5.81325 5.21201 5.81759 5.19935C5.82193 5.18669 5.82893 5.17511 5.83812 5.16538L6.8225 4.11561C6.83259 4.10481 6.8451 4.09655 6.85899 4.0915C6.87288 4.08646 6.88778 4.08477 6.90245 4.08657C6.91712 4.08838 6.93116 4.09363 6.94341 4.10189C6.95567 4.11016 6.9658 4.1212 6.97297 4.13413L7.48438 5.0571C7.51688 5.1156 7.56445 5.16435 7.62215 5.19826C7.67985 5.23218 7.74557 5.25004 7.8125 5.24999H9.125C9.1758 5.25004 9.22609 5.23978 9.2728 5.21982C9.31952 5.19985 9.36169 5.17061 9.39676 5.13385C9.43182 5.09709 9.45906 5.05359 9.47681 5.00599C9.49455 4.95839 9.50245 4.90768 9.5 4.85694C9.49016 4.65514 9.31625 4.49999 9.11445 4.49999Z" fill="white"/>
</svg>
